<svg width="19" height="19" viewBox="0 0 19 19" fill="none" xmlns="http://www.w3.org/2000/svg">
<path d="M17.3759 9.25061C17.3759 8.60312 17.3223 8.13062 17.2063 7.64062H9.66162V10.5631H14.0902C14.0009 11.2894 13.5188 12.3831 12.4473 13.1181L12.4323 13.2159L14.8178 15.027L14.983 15.0431C16.5009 13.6694 17.3759 11.6481 17.3759 9.25061Z" fill="#4285F4"/>
<path d="M9.66098 16.9507C11.8306 16.9507 13.652 16.2507 14.9824 15.0432L12.4467 13.1182C11.7681 13.5819 10.8574 13.9057 9.66098 13.9057C7.53601 13.9057 5.73246 12.5319 5.08954 10.6332L4.9953 10.641L2.51486 12.5223L2.48242 12.6107C3.80383 15.1832 6.51811 16.9507 9.66098 16.9507Z" fill="#34A853"/>
<path d="M5.08998 10.6332C4.92034 10.1432 4.82216 9.61819 4.82216 9.07572C4.82216 8.53318 4.92034 8.0082 5.08106 7.51821L5.07656 7.41385L2.56503 5.50238L2.48285 5.54068C1.93824 6.6082 1.62573 7.80697 1.62573 9.07572C1.62573 10.3445 1.93824 11.5432 2.48285 12.6107L5.08998 10.6332Z" fill="#FBBC05"/>
<path d="M9.66103 4.24572C11.1699 4.24572 12.1878 4.88447 12.7682 5.41826L15.036 3.24824C13.6432 1.9795 11.8306 1.20074 9.66103 1.20074C6.51814 1.20074 3.80384 2.96823 2.48242 5.54071L5.08063 7.51824C5.73248 5.61949 7.53604 4.24572 9.66103 4.24572Z" fill="#EB4335"/>
</svg>
